<mxfile host="Electron" modified="2023-06-05T12:53:41.002Z" agent="Mozilla/5.0 (Windows NT 10.0; Win64; x64) AppleWebKit/537.36 (KHTML, like Gecko) draw.io/21.2.8 Chrome/112.0.5615.165 Electron/24.2.0 Safari/537.36" etag="1WiZvyVIQ3Z6PSN7v_o7" version="21.2.8" type="device">
  <diagram name="Seite-1" id="eWyoWGNT4vj7796dPM0m">
    <mxGraphModel dx="808" dy="558" grid="1" gridSize="10" guides="1" tooltips="1" connect="1" arrows="1" fold="1" page="1" pageScale="1" pageWidth="827" pageHeight="1169" math="0" shadow="0">
      <root>
        <mxCell id="0" />
        <mxCell id="1" parent="0" />
        <mxCell id="qGWc4HgYIMpYUfdJUcuK-2" value="" style="rounded=0;whiteSpace=wrap;html=1;fillColor=#ffe6cc;strokeColor=#d79b00;" vertex="1" parent="1">
          <mxGeometry x="80" y="160" width="680" height="440" as="geometry" />
        </mxCell>
        <mxCell id="qGWc4HgYIMpYUfdJUcuK-3" value="&lt;font style=&quot;font-size: 24px;&quot;&gt;Desktop&lt;/font&gt;" style="text;html=1;strokeColor=none;fillColor=none;align=center;verticalAlign=middle;whiteSpace=wrap;rounded=0;" vertex="1" parent="1">
          <mxGeometry x="355" y="100" width="130" height="60" as="geometry" />
        </mxCell>
        <mxCell id="qGWc4HgYIMpYUfdJUcuK-4" value="&lt;font style=&quot;font-size: 14px;&quot;&gt;Home&lt;/font&gt;" style="text;html=1;strokeColor=#6c8ebf;fillColor=#dae8fc;align=center;verticalAlign=middle;whiteSpace=wrap;rounded=0;" vertex="1" parent="1">
          <mxGeometry x="159" y="170" width="521" height="30" as="geometry" />
        </mxCell>
        <mxCell id="qGWc4HgYIMpYUfdJUcuK-5" value="" style="rounded=0;whiteSpace=wrap;html=1;fillColor=#d5e8d4;strokeColor=#82b366;" vertex="1" parent="1">
          <mxGeometry x="1120" y="160" width="240" height="440" as="geometry" />
        </mxCell>
        <mxCell id="qGWc4HgYIMpYUfdJUcuK-6" value="&lt;font style=&quot;font-size: 24px;&quot;&gt;Mobile&lt;/font&gt;" style="text;html=1;strokeColor=none;fillColor=none;align=center;verticalAlign=middle;whiteSpace=wrap;rounded=0;" vertex="1" parent="1">
          <mxGeometry x="1181" y="100" width="119" height="55" as="geometry" />
        </mxCell>
        <mxCell id="qGWc4HgYIMpYUfdJUcuK-10" value="Selection1&lt;br&gt;&lt;br&gt;Selection2&lt;br&gt;&lt;br&gt;Selection3&lt;br&gt;&lt;br&gt;Selection4&amp;nbsp;" style="rounded=0;whiteSpace=wrap;html=1;fillColor=#f8cecc;strokeColor=#b85450;align=left;" vertex="1" parent="1">
          <mxGeometry x="1130" y="170" width="60" height="210" as="geometry" />
        </mxCell>
      </root>
    </mxGraphModel>
  </diagram>
</mxfile>
